<svg xmlns="http://www.w3.org/2000/svg" viewBox="0 0 133.48 148.04"><defs><style>.cls-1{fill:#8aa9fc;}.cls-2{fill:#e3707f;}.cls-3{fill:#edc483;}.cls-4{fill:#e8947e;}.cls-5{fill:#251a51;}.cls-6{fill:#f6aea6;}.cls-7{fill:#1a3066;}.cls-8{fill:#6338a1;}.cls-14,.cls-9{fill:#fff;}.cls-9{opacity:0.41;}.cls-10{fill:#ddd2f3;}.cls-11{fill:#ffbb7d;}.cls-12{fill:#6e3281;}.cls-13{fill:#ede6f5;}</style></defs><g id="Layer_2" data-name="Layer 2"><g id="Objects"><path class="cls-1" d="M50.64,66.36C49.07,67.87,48.47,70.22,50,72a4.4,4.4,0,0,0,5.9.71c4.26-3.29-.18-9.35-4.77-8.09a.76.76,0,0,0,.2,1.49,6.06,6.06,0,0,1,3.85,1.07,2.79,2.79,0,0,1,.24,3.88c-2.51,3.08-6.85-1.45-4.22-4.21a.37.37,0,0,0-.53-.52Z"/><path class="cls-2" d="M94.46,71.55c.57,2.14,1.21,4.26,1.87,6.37a.67.67,0,0,0,1.08.38c1.71-1.17,3.43-2.32,5.06-3.61a.62.62,0,0,0-.06-1c-1.91-1.31-4.48-3.24-6.9-3.25-.62,0-1.05.86-.43,1.22a27.14,27.14,0,0,0,3.19,1.2,17.16,17.16,0,0,1,3.46,1.85c0-.35,0-.71.07-1.06-1.82,1.12-3.53,2.38-5.26,3.63l1,.21c-.74-2.09-1.5-4.17-2.31-6.23-.18-.43-.92-.19-.79.26Z"/><path class="cls-3" d="M106.53,82.89A50.7,50.7,0,0,0,114,78.6a.79.79,0,0,0-.88-1.32,48.52,48.52,0,0,0-7.05,4.65c-.44.34-.12,1.23.46,1Z"/><path class="cls-4" d="M12.38,90.7a50.57,50.57,0,0,0-2.24-8.32.8.8,0,0,0-1.51.51,48.1,48.1,0,0,0,2.71,8c.22.51,1.16.43,1-.2Z"/><path class="cls-5" d="M20.42,66.06l-.14-.12A1.62,1.62,0,1,0,18,68.22l.13.15a1.64,1.64,0,0,0,2.3,0,1.66,1.66,0,0,0,0-2.31Z"/><path class="cls-2" d="M88.55,137.78S61.68,144,50.89,133.24l3.86-25.77c1.18-7.41.48-21.67,6.15-26.73a10,10,0,0,1,2.16-1.46c4-1.92,11.06-3,17.86-3,8.25,0,16.75,6.22,18.92,14.19l-8.94,20.9Z"/><path class="cls-6" d="M85.89,93.69s12,23.18,6.06,24.41c-19.66,4.06-31.07,7.39-31.07,7.39l-1,7.64c.29,1.15,39.77.15,44.45-5.15,3.3-3.75,7.69-12.4-1.65-31.13l-2.84-6.37Z"/><path class="cls-6" d="M63.29,81.75l-30,11.6-.94-15.72L26,75.14s-9.3,25.24,2.34,29.94,24.75-4,24.75-4Z"/><path class="cls-2" d="M67,77.89c-10.46,3.34-16.7,7.24-31.43,13.39l7.56,16.86,13-4.19Z"/><polyline class="cls-2" points="84.09 90.47 91.69 108.14 108.84 105.01 97.28 85.11 83.61 90.47"/><path class="cls-7" d="M75.12,102.52c3.65-.21,7.26,0,10.9,0,.32,0,.3-.45,0-.48a53.66,53.66,0,0,0-10.9,0c-.27,0-.28.44,0,.43Z"/><path class="cls-7" d="M91.47,82c-12.33,1.11-3.9,19.3-.73,24.81a.27.27,0,0,0,.47-.27c-3.14-5.57-11.55-22.5.3-24.24.17,0,.14-.32,0-.3Z"/><path class="cls-7" d="M57.28,92.43A102.6,102.6,0,0,0,54.36,111c0,.25.42.32.46.06.88-6.2,1.77-12.39,2.77-18.58,0-.19-.26-.28-.31-.08Z"/><path class="cls-5" d="M86.16,58.83,86.72,51A3.93,3.93,0,0,0,89,45.85a5,5,0,0,0-5.25-2.76c1.33-.91,1.23-3.07.14-4.25a6.26,6.26,0,0,0-4.41-1.63,32.14,32.14,0,0,1-4.81-.16c-1.4-.26-2.77-.9-4.19-.72s-2.76,1.77-2,3c-2-.3-4.24-.57-6,.41s-2.72,3.78-1.17,5.13a2.23,2.23,0,0,0-.7,3,3.61,3.61,0,0,0,2.91,1.61A10.76,10.76,0,0,0,66.9,49"/><path class="cls-6" d="M85.82,53.76l-.41,5.42S90,59.8,88.71,64s-4.47,2.36-4.47,2.36-.78,10.76-11.81,7.35C63.66,71,64.2,59.63,65.31,50A6.48,6.48,0,0,1,73,44.34l6.62,1.29A7.67,7.67,0,0,1,85.82,53.76Z"/><path class="cls-6" d="M85.41,63.67l-3,15.84a6.35,6.35,0,0,1-7.72,5h0a6.36,6.36,0,0,1-4.78-7.29l1.62-9.08Z"/><path class="cls-5" d="M73.22,63.85s0,.22-.27.38-.88-.18-1-.72a4.89,4.89,0,0,1-.12-1.78c0-.68.07-1.38.11-2.11a27.22,27.22,0,0,1,.6-5.41,29.71,29.71,0,0,1-.08,5.44c-.06.73-.11,1.43-.16,2.11a5.65,5.65,0,0,0,0,1.65c.08.44.4.66.61.62S73.18,63.82,73.22,63.85Z"/><path class="cls-5" d="M69.64,72.6a14.88,14.88,0,0,1,1.48.7,9.74,9.74,0,0,0,3.74.85,9.61,9.61,0,0,0,3.77-.69,13.68,13.68,0,0,1,1.51-.64c0,.05-.43.5-1.35,1A8.46,8.46,0,0,1,71,73.63,3.48,3.48,0,0,1,69.64,72.6Z"/><path class="cls-5" d="M71.8,66.07c.06,0,.3.18.76.39a2.52,2.52,0,0,0,3.32-1.07c.26-.44.32-.77.4-.76s.14.37-.06.92a2.57,2.57,0,0,1-3.83,1.23C71.9,66.45,71.75,66.11,71.8,66.07Z"/><path class="cls-5" d="M85.76,64.52c0-.08.27-.12.57-.3a.77.77,0,0,0,.34-.43c0-.2,0-.38-.16-.43a.25.25,0,0,0-.28,0l-.44-.23c.41-.86.79-1.45.89-1.4s-.08.72-.43,1.6l-.45-.23a.72.72,0,0,1,.89-.27.75.75,0,0,1,.46.49.94.94,0,0,1,0,.58,1,1,0,0,1-.63.61C86,64.69,85.76,64.58,85.76,64.52Z"/><path class="cls-5" d="M77.27,53.85c0-.13.52-.43,1.25-.24s1.08.74,1,.82-.53-.17-1.1-.32S77.32,54,77.27,53.85Z"/><path class="cls-5" d="M67.74,52.34c-.06-.12.51-.5,1.31-.43s1.3.54,1.21.65-.6-.08-1.26-.13S67.8,52.48,67.74,52.34Z"/><path class="cls-5" d="M85.41,59.18c-3.07-3-4-8-4.81-12.22a10.76,10.76,0,0,1-10.06,1.31A16,16,0,0,1,67,51.4a1.57,1.57,0,0,1-1.26.35c-.52-.15-.75-.74-.87-1.27a8.94,8.94,0,0,1,.18-5.1,6.13,6.13,0,0,1,3.42-3.68,9,9,0,0,1,5.44.09A30.43,30.43,0,0,1,81.56,45c2.35,1.38,4.62,3.21,5.61,5.75s1,7.47-1.41,8.76"/><path class="cls-5" d="M78.1,58.26c-.14,0-.23-.39-.2-.85s.18-.82.32-.81.24.39.2.85S78.25,58.27,78.1,58.26Z"/><path class="cls-5" d="M69.25,57.13c-.14,0-.23-.39-.2-.85s.18-.82.32-.81.23.39.2.85S69.4,57.14,69.25,57.13Z"/><path class="cls-6" d="M25.64,75.67s1.33-8.18,2.92-8.09,4.77,0,4.77,0,.27-7.77,1.15-6.54,1.16,11.7-2.25,16.72Z"/><path class="cls-6" d="M60.88,125.49s-14.26,2.5-14,4.35a13.37,13.37,0,0,0,1.28,3.71l12.7-.29Z"/><polygon class="cls-8" points="76.36 134 76.25 132.03 46.88 130.23 37.03 103.88 4.79 105.65 15.79 134.15 76.36 134"/><path class="cls-9" d="M22.56,118.2a2.39,2.39,0,1,0,2.26-2.52A2.39,2.39,0,0,0,22.56,118.2Z"/><path class="cls-9" d="M21.61,118.25a3.34,3.34,0,1,0,3.16-3.52A3.34,3.34,0,0,0,21.61,118.25Z"/><path class="cls-10" d="M0,134.59,126.09,133l7.39,3.88S36.68,163.46,0,134.59Z"/><path class="cls-10" d="M98.63,41.31c-.38.74.87,19.89.87,19.89l9.43-.79-1.1,5.06,4.6-5.2,9.23-1.06-.56-18.56Z"/><path class="cls-11" d="M74.69,11.49A7.15,7.15,0,0,0,68,18.74s.1,3.79,2.16,5.2,2,2.92,2,2.92H77.5a4.88,4.88,0,0,1,.65-3c.87-1.08,3-3.36,2.71-6.71S78,11.16,74.69,11.49Z"/><path class="cls-8" d="M72,28.56c1.94-.09,3.91.12,5.84,0,.27,0,.37-.45.06-.51a19.45,19.45,0,0,0-5.9,0c-.29,0-.31.47,0,.46Z"/><path class="cls-8" d="M72.74,30.26c.78-.05,1.55-.08,2.33-.07s1.56.14,2.33.08c.28,0,.37-.44.07-.51a12.86,12.86,0,0,0-4.79,0c-.26,0-.2.47.06.46Z"/><path class="cls-8" d="M73.38,31.52c.68,0,1.38.24,2.05.22a.3.3,0,0,0,.08-.58,6.6,6.6,0,0,0-2.13-.11.24.24,0,0,0,0,.47Z"/><path class="cls-8" d="M73.69,26.79c.15-1.93-.5-4.06-.83-5.95l-.57.24c.28.44.73,1.73,1.42,1.69s1-1.33,1.09-1.85h-.62c.14.59.16,2,1.09,1.89s1.32-1.29,1.57-1.93l-.65-.18A13.42,13.42,0,0,0,76,26.87a.32.32,0,0,0,.62-.08c-.06-2-.34-3.95.26-5.91.12-.42-.49-.57-.65-.18-.09.22-.6,1.49-1.08,1.32a5.49,5.49,0,0,1-.31-1.27.32.32,0,0,0-.62,0c-.07.38-.23,1.44-.69,1.12-.26-.18-.5-.83-.66-1.11a.31.31,0,0,0-.57.24c.3,1.89.38,4.1,1.14,5.86.07.16.28.06.29-.07Z"/><path class="cls-11" d="M54.56,24.38c2.89-.92,5.87-1.71,8.69-2.82.23-.09.14-.44-.1-.37-2.94.73-5.83,1.81-8.71,2.74-.28.09-.16.54.12.45Z"/><path class="cls-11" d="M58.11,15.79a53.48,53.48,0,0,0,5.52-.17.24.24,0,0,0,0-.48,50.86,50.86,0,0,0-5.52.13.26.26,0,0,0,0,.52Z"/><path class="cls-11" d="M66.84,12.63c-2-1.79-4-4-6.33-5.42a.36.36,0,0,0-.44.57c1.79,2,4.3,3.53,6.4,5.22.26.21.63-.15.37-.37Z"/><path class="cls-11" d="M71.45,9.89a3.26,3.26,0,0,0-.71-1.6A8.2,8.2,0,0,0,69.67,6.6c-.22-.24-.69,0-.57.33a8.27,8.27,0,0,0,1,1.71c.3.47.6,1.12,1.12,1.36a.14.14,0,0,0,.2-.11Z"/><path class="cls-11" d="M75.77,8.72A57.58,57.58,0,0,0,75.63.31a.32.32,0,0,0-.64,0,59.07,59.07,0,0,0,.21,8.41.29.29,0,0,0,.57,0Z"/><path class="cls-11" d="M79,10.05a23.34,23.34,0,0,0,2-3.16.34.34,0,0,0-.59-.34A24.39,24.39,0,0,0,78.56,9.8a.25.25,0,0,0,.43.25Z"/><path class="cls-11" d="M81.49,12.35c1.37-.58,2.66-1.33,4-2A22.08,22.08,0,0,0,89.3,8.05a.3.3,0,0,0-.29-.5,20.36,20.36,0,0,0-3.69,2,42.66,42.66,0,0,0-4,2.42c-.2.14-.09.54.18.43Z"/><path class="cls-11" d="M83.29,15.94a4.06,4.06,0,0,0,3.54-.66.36.36,0,0,0-.34-.6c-.54.1-1,.38-1.58.51s-1.08.12-1.62.23c-.28.06-.23.44,0,.52Z"/><path class="cls-11" d="M83.71,20.94a104.91,104.91,0,0,0,11.86,2.59c.48.06.55-.69.11-.82a102.31,102.31,0,0,0-11.8-2.39c-.4-.07-.58.52-.17.62Z"/><path class="cls-12" d="M28.67,88.78a5.8,5.8,0,0,1,.59-2.43c.95-1.51,2.31-1.13,3.63-.46a4.5,4.5,0,0,0,4.06.44c2.27-1,3.34-4.41,1.17-6-.71-.52-1.4.34-1.3,1,.13.93.59,1.94-.21,2.74-1,1.06-2.29.17-3.35-.31a4.36,4.36,0,0,0-3.52-.15c-2,.82-3.5,3.56-1.89,5.42a.49.49,0,0,0,.82-.22Z"/><path class="cls-3" d="M58.56,90.44a50.62,50.62,0,0,0,8.13-2.87.8.8,0,0,0-.63-1.46,48.35,48.35,0,0,0-7.78,3.31c-.49.25-.33,1.19.28,1Z"/><path class="cls-13" d="M45,93.28c.58,2.14,1.21,4.26,1.87,6.37A.67.67,0,0,0,48,100c1.72-1.16,3.44-2.31,5.07-3.6a.62.62,0,0,0-.07-1c-1.9-1.31-4.48-3.24-6.9-3.25-.62,0-1,.86-.42,1.22a25.87,25.87,0,0,0,3.19,1.2,17.71,17.71,0,0,1,3.46,1.85c0-.36,0-.71.07-1.06-1.82,1.12-3.54,2.38-5.27,3.63l1,.21c-.73-2.09-1.49-4.17-2.31-6.23-.17-.43-.91-.19-.79.26Z"/><path class="cls-12" d="M48.76,114.7a50.52,50.52,0,0,0,8.61,0,.78.78,0,0,0-.09-1.55,49.64,49.64,0,0,0-8.44.5c-.55.07-.72,1-.08,1Z"/><path class="cls-14" d="M103.79,49.88l2,6.89,2.78-.54-.27-1.39.78-.47,1.49,1.46,4.7-.91.61-1.8-1.34-.3,1.73-.57-.38-1.93-1.49.13,2.05-.56L116,47.5l-4.77.93s.3-3.33-1.11-4.42l-1.07.21a6.06,6.06,0,0,1,.33,1.7,35.9,35.9,0,0,1-1,3.62l-1.46.69-.35-1Z"/><polygon class="cls-10" points="6.63 36.98 8.23 56.06 43.37 56.06 45.32 62.78 47.37 55.41 54.07 55.02 50.98 37.93 6.63 36.98"/><path class="cls-14" d="M11.24,44a269,269,0,0,1,36.25.62c.43,0,.44-.64,0-.68a267.41,267.41,0,0,0-36.25-.53c-.37,0-.38.61,0,.59Z"/><path class="cls-14" d="M12,47.81a267.43,267.43,0,0,1,36.25.62c.43,0,.43-.65,0-.68A267.43,267.43,0,0,0,12,47.22c-.38,0-.38.6,0,.59Z"/><path class="cls-14" d="M12,51c8.13.27,16.17-.32,24.3.41.43,0,.43-.65,0-.68-8.12-.55-16.17-.2-24.3-.32A.3.3,0,0,0,12,51Z"/></g></g></svg>