<svg xmlns="http://www.w3.org/2000/svg" viewBox="0 0 149.64 169.88"><defs><style>.cls-1{fill:#ddd2f3;}.cls-2{fill:#e3707f;}.cls-3{fill:#8aa9fc;}.cls-4{fill:#6e3281;}.cls-5{fill:#edc483;}.cls-6{fill:#251a51;}.cls-7{fill:#f6aea6;}.cls-8{fill:#e4e1ea;}.cls-9{opacity:0.18;}.cls-10{opacity:0.13;}.cls-11{fill:#6338a1;}.cls-12{fill:#e8947e;}.cls-13{fill:#f9f2fc;}</style></defs><g id="Layer_2" data-name="Layer 2"><g id="Objects"><circle class="cls-1" cx="104.1" cy="47.5" r="42.6"/><path class="cls-2" d="M108.19,6.42a8.17,8.17,0,0,1,4-.28,4.93,4.93,0,0,1,3.26,2.25,8.19,8.19,0,0,1,.6,4.54q-.36,5.81-.71,11.63a7,7,0,0,0,.29,3.18,2.43,2.43,0,0,0,2.52,1.6,9.55,9.55,0,0,0,1.5-.67,1.27,1.27,0,0,1,1.51.23,1.33,1.33,0,0,1,.16.94,4.61,4.61,0,0,1-2.3,3.47,1.29,1.29,0,0,1,1.68,1.21,2.09,2.09,0,0,1-1.42,1.84,6,6,0,0,1-2.43.28A1.28,1.28,0,0,1,118,38.05a1.94,1.94,0,0,1-1.22,1.51,4.24,4.24,0,0,1-2,.21,7.64,7.64,0,0,1-4-1.49c-2-1.56-2.78-4.23-2.8-6.75a48.58,48.58,0,0,1,1-7.48c.81-5.79.14-11.67-.52-17.47l.48-.15"/><path class="cls-3" d="M115.91,92.9c-1.57,1.51-2.17,3.85-.67,5.67a4.4,4.4,0,0,0,5.9.71c4.26-3.29-.18-9.35-4.77-8.09a.76.76,0,0,0,.2,1.49,6,6,0,0,1,3.86,1.07,2.8,2.8,0,0,1,.23,3.88c-2.5,3.08-6.85-1.46-4.22-4.21a.37.37,0,0,0-.53-.52Z"/><path class="cls-4" d="M67.3,76.16a5.67,5.67,0,0,1-1.55-2c-.6-1.68.54-2.52,1.87-3.14a4.48,4.48,0,0,0,2.86-2.92c.63-2.4-1.41-5.35-4-4.64-.85.23-.59,1.31,0,1.64.81.47,1.89.73,2,1.84.18,1.49-1.29,1.92-2.31,2.45a4.4,4.4,0,0,0-2.3,2.68c-.6,2.1.65,5,3.1,4.83a.49.49,0,0,0,.34-.78Z"/><path class="cls-5" d="M59.25,101.86c.22,1.39,1.66,4.33,3.18,4.73.81.22,1.41-.31,2-.75,1.14-.78,2.27-1.59,3.4-2.39a1,1,0,0,0,.35-1.33l-3-4.62a1,1,0,0,0-1.33-.34,36.61,36.61,0,0,0-3.72,2.73c-.77.71.21,1.88,1.09,1.41a32.45,32.45,0,0,0,3.61-2.47l-1.33-.35,3,4.62c.12-.44.23-.89.35-1.33-.68.48-1.36,1-2,1.45-.39.27-1.67,1.48-2.09,1.43s-1.19-1.4-1.42-1.68a7.75,7.75,0,0,0-1.55-1.53c-.3-.21-.59.13-.55.42Z"/><path class="cls-5" d="M128.26,38.68c.21,1.39,1.66,4.33,3.18,4.73.8.22,1.41-.31,2-.75,1.15-.78,2.28-1.59,3.41-2.39a1,1,0,0,0,.34-1.33l-3-4.61A1,1,0,0,0,132.9,34a34.51,34.51,0,0,0-3.72,2.73c-.78.71.21,1.88,1.09,1.41a33.4,33.4,0,0,0,3.61-2.47l-1.33-.35,3,4.62c.11-.44.23-.89.35-1.33l-2,1.45c-.38.28-1.66,1.48-2.09,1.43s-1.18-1.4-1.42-1.68a7.75,7.75,0,0,0-1.55-1.53c-.29-.21-.59.13-.54.42Z"/><path class="cls-2" d="M134.19,63.74c-2.6,1.21-5.15,2.48-7.7,3.79a.87.87,0,0,0-.24,1.46c1.87,1.93,3.71,3.87,5.72,5.66a.8.8,0,0,0,1.22-.3c1.24-2.72,3.14-6.43,2.62-9.51-.13-.79-1.33-1.15-1.65-.27a32.76,32.76,0,0,0-.82,4.33,23.28,23.28,0,0,1-1.59,4.82l1.35-.15c-1.83-2.07-3.81-4-5.79-5.9l0,1.34c2.5-1.4,5-2.82,7.42-4.32.51-.32.05-1.21-.51-.95Z"/><path class="cls-2" d="M86.05,99.58a48.38,48.38,0,0,0,5.26-6.84c.47-.76-.68-1.63-1.26-.94A48.07,48.07,0,0,0,85.2,99a.54.54,0,0,0,.85.63Z"/><path class="cls-6" d="M149.17,25l-.14-.13a1.62,1.62,0,1,0-2.29,2.29l.13.14a1.63,1.63,0,0,0,2.3-2.3Z"/><path class="cls-6" d="M75.14,85.72,75,85.6a1.61,1.61,0,0,0-2.28,2.28l.12.15a1.65,1.65,0,0,0,2.31,0,1.67,1.67,0,0,0,0-2.31Z"/><path class="cls-7" d="M96.71,34.23,68.45,44.82l2.7-11.41L63.8,31.55s-7.9,22.3-2.41,22.9c9.61,1,24.15-2.76,24.15-2.76Z"/><path class="cls-6" d="M86.9,59.82,87,82.16c7.36,9,33-2.65,33-2.65l.3-9.14.6-21.77c-.59-8.67-8.65-12.92-8.65-12.92a28.14,28.14,0,0,0-13-2.38c-4.77.24-5.95,2.52-7.92,6.88C89.7,43.7,86.9,47,86.9,59.82Z"/><path class="cls-7" d="M111.06,12.25l-.34,4.47s3.8.51,2.71,4-3.68,1.95-3.68,1.95-.65,8.89-9.75,6.07c-7.24-2.24-6.8-11.62-5.88-19.61a5.35,5.35,0,0,1,6.35-4.63l5.47,1.06A6.36,6.36,0,0,1,111.06,12.25Z"/><path class="cls-7" d="M110.72,20.42,108.26,33.5a5.24,5.24,0,0,1-6.37,4.13h0a5.23,5.23,0,0,1-3.94-6l1.33-7.49Z"/><path class="cls-6" d="M100.65,20.57s.06.19-.22.33-.75-.14-.87-.59a4,4,0,0,1-.12-1.49c0-.58.06-1.15.09-1.74a20.2,20.2,0,0,1,.54-4.47,19.47,19.47,0,0,1,0,4.5c0,.59-.09,1.16-.13,1.74a4.7,4.7,0,0,0,0,1.35c.06.36.31.52.47.51S100.62,20.55,100.65,20.57Z"/><path class="cls-6" d="M97.7,27.8A11.58,11.58,0,0,0,102,29,11.6,11.6,0,0,0,106.36,28c0,.05-.34.43-1.1.83a6.91,6.91,0,0,1-6.49-.14C98,28.24,97.66,27.85,97.7,27.8Z"/><path class="cls-6" d="M99.48,22.41c.06-.06.27.13.65.29a2.23,2.23,0,0,0,1.51.09,2.2,2.2,0,0,0,1.18-1c.22-.35.28-.62.36-.61s.14.3,0,.77a2.17,2.17,0,0,1-1.35,1.3A2.14,2.14,0,0,1,100,23C99.54,22.74,99.43,22.44,99.48,22.41Z"/><path class="cls-6" d="M111,21.13c0-.08.22-.13.46-.28a.6.6,0,0,0,.25-.34c0-.16,0-.27-.11-.3a.2.2,0,0,0-.17,0L111,20c.34-.7.67-1.18.77-1.14s0,.61-.32,1.34L111,20a.67.67,0,0,1,1.19.2.84.84,0,0,1,0,.5.89.89,0,0,1-.55.52C111.22,21.3,111,21.19,111,21.13Z"/><path class="cls-6" d="M104,12.32c-.06-.13.42-.41,1-.24s.9.63.78.72-.46-.11-.92-.22S104,12.46,104,12.32Z"/><path class="cls-6" d="M96.13,11.07c-.06-.12.41-.46,1.08-.4s1.09.47,1,.58-.51,0-1-.06S96.19,11.21,96.13,11.07Z"/><path class="cls-2" d="M110.72,16.72c-2.54-2.48-3.29-6.61-4-10.08a8.91,8.91,0,0,1-8.3,1.08,13.44,13.44,0,0,1-3,2.58,1.34,1.34,0,0,1-1,.29c-.42-.13-.61-.62-.72-1.05a7.57,7.57,0,0,1,.15-4.22,5.1,5.1,0,0,1,2.83-3,7.41,7.41,0,0,1,4.49.07A25.11,25.11,0,0,1,107.53,5a10.26,10.26,0,0,1,4.64,4.75C113,11.82,113,15.89,111,17"/><path class="cls-6" d="M95.72,34.14c2.46-1-16.45,6-16.45,6l1.92,12.94,7.19-2.36Z"/><path class="cls-7" d="M70.62,34.14s4.94-6.9,4.06-6.9-1.34,1.3-3.05,2.19c0,0,2.73-8.63,1.88-8.45s-2.86,5.72-3,5.72,1.74-6.21,1-6.29-2.42,5.69-2.42,5.69,1.18-5.48.44-5.6-1.84,4.93-1.84,4.93.87-4.25.2-4.35C67.53,21,63.8,31.55,63.8,31.55s6.82,2.59,6.82,2.59"/><path class="cls-6" d="M108.79,58.71a4,4,0,0,1-.21-1c-.1-.66-.23-1.6-.39-2.77-.3-2.35-.68-5.58-1.07-9.17a10.53,10.53,0,0,1,0-2.69,4.83,4.83,0,0,1,1-2.33,6.15,6.15,0,0,1,3.62-2.14,8.93,8.93,0,0,1,2.83-.08,2.78,2.78,0,0,1,1,.23,5.27,5.27,0,0,1-1,0,10,10,0,0,0-2.74.24A5.88,5.88,0,0,0,108.51,41a4.54,4.54,0,0,0-.89,2.12,10.47,10.47,0,0,0,0,2.56c.38,3.58.71,6.83.92,9.18.11,1.17.18,2.12.22,2.78A3.72,3.72,0,0,1,108.79,58.71Z"/><path class="cls-6" d="M108.13,57.9a55.2,55.2,0,0,1,7.68.55,58.31,58.31,0,0,1,7.64,1.07,59.17,59.17,0,0,1-7.69-.55A58,58,0,0,1,108.13,57.9Z"/><polygon class="cls-4" points="85.76 1.09 85.76 15.9 75.86 15.9 75.55 21.51 69.74 15.57 47.96 15.57 49.87 0 85.76 1.09"/><path class="cls-8" d="M82.37,5.33c-9.72-.2-19.51-.27-29.24-.06a.15.15,0,0,0,0,.29c9.73.2,19.52.13,29.24-.06a.09.09,0,0,0,0-.17Z"/><path class="cls-8" d="M82.37,8.17C72.65,8,62.86,7.91,53.13,8.11a.15.15,0,0,0,0,.29c9.73.21,19.52.14,29.24-.06a.09.09,0,0,0,0-.17Z"/><path class="cls-8" d="M82.37,11.17c-6-.19-12-.24-18-.06a.15.15,0,0,0,0,.29c6,.18,12,.13,18-.06a.09.09,0,0,0,0-.17Z"/><path class="cls-6" d="M96.94,15.09c-.13.06-.32-.08-.51-.25s-.33-.37-.28-.5.37-.13.64.12S97.07,15,96.94,15.09Z"/><path class="cls-6" d="M104.54,16c-.13.06-.37-.17-.59-.47s-.38-.59-.29-.7.44,0,.71.39S104.67,15.9,104.54,16Z"/><g class="cls-9"><path class="cls-6" d="M102.8,22.46c.22.69,0,1.36-.45,1.51s-1-.3-1.23-1,0-1.36.45-1.51S102.59,21.78,102.8,22.46Z"/></g><g class="cls-10"><path class="cls-6" d="M107.38,17.72c0,.72-.92,1.31-2.07,1.32s-2.08-.57-2.09-1.29.92-1.31,2.07-1.31S107.38,17,107.38,17.72Z"/></g><g class="cls-10"><path class="cls-6" d="M98.81,18.33c0,.72-.92,1.31-2.07,1.32s-2.08-.57-2.09-1.29.92-1.31,2.07-1.32S98.81,17.61,98.81,18.33Z"/></g><path class="cls-11" d="M111.23,10.68c0-.06.13-.29,0-.71s-.55-1-.88-1.64a7.3,7.3,0,0,1-1-2.51,7.24,7.24,0,0,1,1.49,2.27,6.92,6.92,0,0,1,.76,1.8.91.91,0,0,1-.11.65C111.34,10.68,111.25,10.7,111.23,10.68Z"/><polygon class="cls-3" points="89.14 53.44 87.47 75.73 110.7 78.85 109.13 53.12 89.14 53.44"/><polyline class="cls-3" points="90.99 38.33 90.99 56.01 93.7 54.99 93.7 34.84 90.99 35.67"/><path class="cls-3" d="M112.52,35.86S102,37.21,105.13,54.35l2.63.28s-3-16.1,6.9-17.25Z"/><path class="cls-7" d="M109.43,55.75S113,76.85,108,76.33c-16.61-1.7-26.5-1.93-26.5-1.93l-2.75,5.71c-.07,1,31.45,10,36.52,7,3.57-2.11,9.27-7.78,6.68-24.74l-.61-5.68Z"/><path class="cls-6" d="M118.64,41.75s3.88,3.72,4.74,17.8l-15-1.66S105.89,33.92,118.64,41.75Z"/><path class="cls-7" d="M83.21,74.4s-8.13-2.55-7.85-1.71,1.66.87,3,2.22c0,0-9.09.1-8.65.85s6.35.93,6.39,1.06-6.47.29-6.32,1,6.19.52,6.19.52-5.61.6-5.49,1.34,5.28.21,5.28.21-4.33.5-4.21,1.17c.07.42,12.66.51,12.68.81s-1.06-7.45-1.06-7.45"/><path class="cls-6" d="M93.57,53.56c.06,0,.22.35.28,1a2.25,2.25,0,0,1-.22,1.18,1.49,1.49,0,0,1-1.28.85A1.64,1.64,0,0,1,91,55.83a2.41,2.41,0,0,1-.37-1.13c0-.66,0-1,.11-1s.13.39.26,1a2.33,2.33,0,0,0,.39.91,1.25,1.25,0,0,0,.94.53,1,1,0,0,0,.86-.57,2,2,0,0,0,.27-.94C93.52,54,93.49,53.56,93.57,53.56Z"/><path class="cls-6" d="M91.93,53.91c0,.06,0,.18,0,.31s.15.19.28.11.12-.17,0-.3-.23-.1-.27-.16.1-.25.42-.17a.6.6,0,0,1,.41.39.63.63,0,0,1-.27.68.62.62,0,0,1-.73,0,.57.57,0,0,1-.2-.52C91.66,53.9,91.9,53.84,91.93,53.91Z"/><path class="cls-6" d="M107.5,53.19s.25.21.18.68A1.37,1.37,0,0,1,106.42,55a1.39,1.39,0,0,1-1.35-1c-.11-.46.07-.72.13-.69s.06.26.22.56a1,1,0,0,0,1.91-.08C107.46,53.46,107.42,53.22,107.5,53.19Z"/><path class="cls-6" d="M105.81,52.57s.09-.24.42-.25a.72.72,0,0,1,.55.26.66.66,0,0,1,0,.79.62.62,0,0,1-.78.27.54.54,0,0,1-.28-.6.4.4,0,0,1,.24-.34c.11,0,.16,0,.16,0s-.09.16,0,.32.13.19.27,0,0-.32-.19-.4S105.85,52.64,105.81,52.57Z"/><path class="cls-6" d="M105.26,63.61c-.14,0-.17-.47-.15-1s.07-1,.21-1,.33.43.31,1S105.4,63.64,105.26,63.61Z"/><path class="cls-6" d="M103.43,67.11c-.1-.1.13-.48.44-.91s.6-.77.73-.7,0,.53-.31,1S103.53,67.22,103.43,67.11Z"/><path class="cls-6" d="M99.94,68.92c0-.15.39-.32.89-.49s.93-.26,1-.13-.29.45-.84.63S100,69.06,99.94,68.92Z"/><path class="cls-6" d="M96,68.41c.06-.13.5,0,1,.09s.92.31.91.45-.49.21-1,0S96,68.54,96,68.41Z"/><path class="cls-6" d="M93.13,65.74c.13-.07.44.25.76.67s.57.79.47.89-.52-.12-.88-.57S93,65.8,93.13,65.74Z"/><path class="cls-6" d="M92.26,61.89c.14,0,.22.45.26,1s0,1-.11,1-.37-.39-.41-1S92.12,61.87,92.26,61.89Z"/><path class="cls-6" d="M95.62,61.27c0,.15-.46.25-1,.23s-1-.16-1-.3.46-.24,1-.22S95.63,61.13,95.62,61.27Z"/><path class="cls-6" d="M99.62,61.42c0,.14-.46.24-1,.22s-1-.15-1-.3.46-.24,1-.22S99.62,61.27,99.62,61.42Z"/><path class="cls-6" d="M103.61,61.56c0,.14-.45.24-1,.22s-1-.15-1-.29.45-.25,1-.23S103.62,61.42,103.61,61.56Z"/><path class="cls-12" d="M105.28,106.3a51.38,51.38,0,0,0,1.24-8.55c0-.88-1.4-1.1-1.56-.21a49.83,49.83,0,0,0-.73,8.62.54.54,0,0,0,1,.14Z"/><path class="cls-6" d="M119.81,115.78l-.15-.13a1.62,1.62,0,0,0-2.29,2.29l.13.14a1.63,1.63,0,1,0,2.31-2.3Z"/><circle class="cls-1" cx="44.54" cy="127.29" r="42.6" transform="translate(-89.7 140.1) rotate(-76.16)"/><path class="cls-7" d="M51,112.92l28.26,10.6-2.7-11.42,7.35-1.86s7.9,22.31,2.41,22.9c-9.61,1.05-24.15-2.76-24.15-2.76Z"/><path class="cls-11" d="M60.82,138.51l-.06,22.35c-7.36,9-33-2.66-33-2.66l-.3-9.14-.59-21.77c.59-8.67,8.64-12.92,8.64-12.92a28.3,28.3,0,0,1,13-2.38c4.77.24,6,2.52,7.92,6.88C58,122.39,60.82,125.7,60.82,138.51Z"/><path class="cls-7" d="M38.29,134.44s-3.58,21.1,1.47,20.59c16.61-1.71,26.5-1.94,26.5-1.94L69,158.8c.06,1-31.46,10-36.53,7-3.57-2.11-9.27-7.78-6.68-24.74l.61-5.68Z"/><path class="cls-11" d="M29.16,120.45s-3.88,3.72-4.74,17.79l15-1.65S41.91,112.61,29.16,120.45Z"/><path class="cls-7" d="M36.67,90.94,37,95.41s-3.8.51-2.72,4S38,101.33,38,101.33s.65,8.89,9.75,6.07c7.24-2.24,6.8-11.62,5.88-19.61a5.35,5.35,0,0,0-6.35-4.63l-5.47,1.06A6.35,6.35,0,0,0,36.67,90.94Z"/><path class="cls-7" d="M37,99.12l2.45,13.07a5.24,5.24,0,0,0,6.37,4.13h0a5.23,5.23,0,0,0,3.94-6l-1.33-7.5Z"/><path class="cls-6" d="M47.07,99.26s.11.12.28.14.4-.15.46-.51a4.36,4.36,0,0,0,0-1.35l-.13-1.74a20.19,20.19,0,0,1,0-4.5,19.51,19.51,0,0,1,.54,4.47l.09,1.74A4.25,4.25,0,0,1,48.17,99c-.12.45-.59.73-.88.59S47.05,99.26,47.07,99.26Z"/><path class="cls-6" d="M50,106.49c0,.05-.32.45-1.07.87a6.77,6.77,0,0,1-3.22.88,6.87,6.87,0,0,1-3.27-.74c-.76-.4-1.14-.78-1.1-.83a11.17,11.17,0,0,0,4.35,1A11.37,11.37,0,0,0,50,106.49Z"/><path class="cls-6" d="M48.24,101.1c.06,0-.06.33-.47.61a2.13,2.13,0,0,1-3.2-1c-.17-.47-.09-.77,0-.77s.14.26.36.61a2.07,2.07,0,0,0,2.7.87C48,101.23,48.18,101.05,48.24,101.1Z"/><path class="cls-6" d="M36.72,99.82c0,.06-.22.17-.62.05a.86.86,0,0,1-.54-.52.76.76,0,0,1,0-.5.71.71,0,0,1,.41-.44.64.64,0,0,1,.78.25l-.44.23c-.29-.74-.43-1.3-.32-1.35s.43.44.78,1.14l-.45.23a.2.2,0,0,0-.17,0c-.1,0-.14.15-.11.3a.54.54,0,0,0,.25.34C36.5,99.7,36.73,99.74,36.72,99.82Z"/><path class="cls-6" d="M43.73,91c0,.14-.46.14-.91.26s-.82.32-.92.22.17-.56.79-.72S43.78,90.88,43.73,91Z"/><path class="cls-6" d="M51.59,89.76c-.06.14-.51.07-1,.12s-1,.19-1,.06.33-.52,1-.57S51.66,89.64,51.59,89.76Z"/><path class="cls-6" d="M37,95.41c2.54-2.48,3.28-6.6,4-10.08a8.91,8.91,0,0,0,8.3,1.08,13.27,13.27,0,0,0,3,2.58,1.3,1.3,0,0,0,1,.29c.43-.13.62-.62.72-1A7.53,7.53,0,0,0,53.85,84,5.09,5.09,0,0,0,51,81a7.33,7.33,0,0,0-4.49.08,24.75,24.75,0,0,0-6.34,2.62,10.19,10.19,0,0,0-4.64,4.74c-.82,2.09-.82,6.17,1.17,7.23"/><path class="cls-11" d="M52,112.83c-2.46-1,16.45,6,16.45,6l-1.92,12.94-7.19-2.36Z"/><path class="cls-7" d="M64.52,153.09s8.13-2.55,7.85-1.71-1.67.87-3.05,2.22c0,0,9.09.1,8.65.85s-6.35.93-6.39,1.06,6.47.29,6.33,1-6.19.52-6.19.52,5.6.6,5.48,1.35-5.28.2-5.28.2,4.33.5,4.21,1.18c-.06.41-12.66.5-12.68.8s1.07-7.45,1.07-7.45"/><path class="cls-7" d="M77.1,112.83s-4.93-6.9-4-6.9,1.33,1.3,3,2.19c0,0-2.72-8.63-1.88-8.45s2.86,5.72,3,5.72-1.74-6.21-1-6.29,2.42,5.7,2.42,5.7-1.18-5.49-.43-5.61S80,104.12,80,104.12s-.87-4.25-.2-4.35c.41-.06,4.14,10.47,4.14,10.47s-6.82,2.59-6.82,2.59"/><path class="cls-13" d="M31.58,131.81c.05,0,.24.32.25,1a1.35,1.35,0,0,1-.54,1.07,1,1,0,0,1-.77.18,1.41,1.41,0,0,1-.67-.44c-.33-.37-.54-.6-.87-.64a.93.93,0,0,0-.78.23c-.38.35-.37.75-.45.75s-.25-.43.18-1a1.26,1.26,0,0,1,1.11-.45,1.34,1.34,0,0,1,.69.26,3.93,3.93,0,0,1,.5.5c.51.7,1.19,0,1.23-.49S31.49,131.82,31.58,131.81Z"/><path class="cls-13" d="M36,128s.15-.37.7-.72a1.34,1.34,0,0,1,1.18-.1,1,1,0,0,1,.56.57,1.28,1.28,0,0,1,0,.8,1.43,1.43,0,0,0-.09,1.07,1,1,0,0,0,.59.55c.5.14.84-.08.88,0s-.24.44-1,.37a1.31,1.31,0,0,1-1-.71,1.47,1.47,0,0,1-.14-.73,3.75,3.75,0,0,1,.17-.68c.33-.81-.61-1-1.06-.8S36.07,128.05,36,128Z"/><path class="cls-13" d="M35.72,118.43s.15-.37.7-.72a1.34,1.34,0,0,1,1.18-.1,1,1,0,0,1,.56.57,1.27,1.27,0,0,1,0,.8,1.43,1.43,0,0,0-.09,1.07,1,1,0,0,0,.59.55c.5.15.84-.07.88,0s-.24.43-1,.36a1.28,1.28,0,0,1-1-.71,1.47,1.47,0,0,1-.14-.73,4,4,0,0,1,.17-.68c.33-.81-.61-1-1.06-.8S35.77,118.5,35.72,118.43Z"/><path class="cls-13" d="M45.19,130.86s-.39-.11-.78-.63a1.33,1.33,0,0,1-.2-1.17,1,1,0,0,1,.52-.61,1.39,1.39,0,0,1,.8,0,1.45,1.45,0,0,0,1.07,0,1,1,0,0,0,.5-.65c.1-.51-.15-.83-.09-.87s.46.2.45.91a1.28,1.28,0,0,1-.62,1,1.41,1.41,0,0,1-.72.2,3.56,3.56,0,0,1-.69-.11c-.83-.26-1,.7-.7,1.13S45.25,130.81,45.19,130.86Z"/><path class="cls-13" d="M51.64,140.85c0,.05-.17.36-.75.66a1.3,1.3,0,0,1-1.19,0,1,1,0,0,1-.51-.6,1.32,1.32,0,0,1,.08-.8c.19-.46.29-.74.17-1.06a1,1,0,0,0-.55-.59c-.49-.18-.85,0-.88-.06s.27-.42,1-.3a1.34,1.34,0,0,1,1,1.52,3.77,3.77,0,0,1-.21.67c-.4.78.53,1.07,1,.87S51.6,140.78,51.64,140.85Z"/><path class="cls-13" d="M59.24,125.1c0,.05-.17.36-.75.67a1.36,1.36,0,0,1-1.19,0,1,1,0,0,1-.51-.61,1.32,1.32,0,0,1,.08-.8c.19-.46.29-.74.17-1.06a1,1,0,0,0-.55-.59c-.49-.18-.85,0-.88-.06s.27-.42,1-.29a1.26,1.26,0,0,1,.9.78,1.27,1.27,0,0,1,.08.73,3.53,3.53,0,0,1-.21.67c-.39.78.53,1.07,1,.87S59.2,125,59.24,125.1Z"/><path class="cls-13" d="M64.43,122.7s.4,0,.88.49a1.31,1.31,0,0,1,.41,1.11,1,1,0,0,1-.4.69,1.33,1.33,0,0,1-.77.2,1.42,1.42,0,0,0-1.06.19,1,1,0,0,0-.37.73c0,.51.3.78.24.84s-.49-.12-.61-.82a1.33,1.33,0,0,1,.43-1.12,1.4,1.4,0,0,1,.67-.32,4.21,4.21,0,0,1,.7,0c.87.1.83-.86.48-1.24S64.38,122.77,64.43,122.7Z"/><path class="cls-13" d="M43.45,149s-.18.36-.75.67a1.36,1.36,0,0,1-1.19,0,1,1,0,0,1-.51-.61,1.25,1.25,0,0,1,.08-.8,1.46,1.46,0,0,0,.17-1,.93.93,0,0,0-.56-.6c-.48-.18-.84,0-.87-.06s.27-.42,1-.29a1.32,1.32,0,0,1,1,1.51,2.93,2.93,0,0,1-.22.67c-.39.78.53,1.07,1,.87S43.41,148.92,43.45,149Z"/><path class="cls-13" d="M54.7,133.84s-.37-.16-.7-.73a1.36,1.36,0,0,1-.06-1.18,1,1,0,0,1,.59-.54,1.35,1.35,0,0,1,.8,0,1.39,1.39,0,0,0,1.06.13A.91.91,0,0,0,57,131c.16-.49-.05-.84,0-.87s.44.25.34,1a1.27,1.27,0,0,1-.74.93,1.36,1.36,0,0,1-.73.12,4.68,4.68,0,0,1-.68-.19c-.8-.36-1.05.58-.83,1S54.77,133.79,54.7,133.84Z"/><path class="cls-13" d="M56.72,142s-.37-.16-.7-.72a1.38,1.38,0,0,1-.06-1.19,1,1,0,0,1,.59-.54,1.27,1.27,0,0,1,.8.05,1.49,1.49,0,0,0,1.06.13.94.94,0,0,0,.57-.59c.16-.49,0-.84,0-.87s.43.25.34,1a1.3,1.3,0,0,1-.74.94,1.27,1.27,0,0,1-.73.11,3,3,0,0,1-.68-.19c-.8-.36-1,.58-.83,1S56.79,141.93,56.72,142Z"/><path class="cls-13" d="M40.44,138.51c-.06,0-.16-.37,0-1a1.37,1.37,0,0,1,.75-.92,1,1,0,0,1,.8,0,1.33,1.33,0,0,1,.56.57c.23.44.39.7.7.81a.9.9,0,0,0,.81-.05c.45-.26.53-.65.61-.63s.15.48-.4.94a1.28,1.28,0,0,1-1.18.19,1.3,1.3,0,0,1-.62-.41,4.36,4.36,0,0,1-.37-.59c-.35-.8-1.16-.28-1.31.21S40.52,138.52,40.44,138.51Z"/><path class="cls-13" d="M55.14,148.56s-.16-.37,0-1a1.32,1.32,0,0,1,.76-.92.94.94,0,0,1,.79,0,1.33,1.33,0,0,1,.56.57c.23.44.39.7.7.81a1,1,0,0,0,.82,0c.45-.26.52-.66.6-.64s.15.48-.4.94a1.28,1.28,0,0,1-1.17.2,1.41,1.41,0,0,1-.62-.41,3.71,3.71,0,0,1-.38-.6c-.35-.8-1.16-.27-1.31.21S55.23,148.57,55.14,148.56Z"/><path class="cls-13" d="M54.72,118.11c-.06,0-.17-.37,0-1a1.33,1.33,0,0,1,.75-.92,1,1,0,0,1,.79,0,1.26,1.26,0,0,1,.57.57c.23.43.38.7.7.81a.94.94,0,0,0,.81,0c.45-.26.53-.65.6-.63s.15.47-.39.94a1.28,1.28,0,0,1-1.18.19,1.38,1.38,0,0,1-.62-.41,3.55,3.55,0,0,1-.37-.59c-.35-.8-1.17-.28-1.31.21S54.8,118.12,54.72,118.11Z"/><path class="cls-13" d="M49.91,152.6c0,.05-.4,0-.93-.37a1.33,1.33,0,0,1-.55-1,1,1,0,0,1,.31-.73,1.28,1.28,0,0,1,.75-.3,1.45,1.45,0,0,0,1-.32,1,1,0,0,0,.28-.77c-.06-.51-.4-.74-.35-.8s.5.05.71.74a1.29,1.29,0,0,1-.29,1.15,1.35,1.35,0,0,1-.62.41,3.65,3.65,0,0,1-.69.11c-.88,0-.72,1-.33,1.29S50,152.53,49.91,152.6Z"/><path class="cls-13" d="M32.47,122.7c.05,0,.35.2.62.79a1.32,1.32,0,0,1-.05,1.19,1,1,0,0,1-.64.48,1.37,1.37,0,0,1-.79-.12,1.42,1.42,0,0,0-1-.24,1,1,0,0,0-.63.53c-.21.47,0,.84-.1.87s-.41-.3-.25-1a1.29,1.29,0,0,1,.83-.86,1.24,1.24,0,0,1,.74,0,3.63,3.63,0,0,1,.66.25c.75.43,1.1-.47.92-1S32.4,122.74,32.47,122.7Z"/><path class="cls-13" d="M49.31,119.69s.34.2.62.79a1.36,1.36,0,0,1-.06,1.19,1,1,0,0,1-.63.48,1.27,1.27,0,0,1-.79-.13c-.45-.21-.73-.33-1.05-.23a1,1,0,0,0-.63.52c-.2.48,0,.84-.1.87s-.41-.29-.24-1a1.28,1.28,0,0,1,.83-.86,1.41,1.41,0,0,1,.74,0,4,4,0,0,1,.65.25c.76.44,1.1-.47.93-1S49.23,119.73,49.31,119.69Z"/><path class="cls-6" d="M38.93,137.41a3.74,3.74,0,0,1,0-1c0-.66.12-1.62.22-2.79.21-2.35.54-5.6.93-9.18a11,11,0,0,0,0-2.56,4.52,4.52,0,0,0-.88-2.12,6,6,0,0,0-3.33-2.07,10.41,10.41,0,0,0-2.73-.24,5.39,5.39,0,0,1-1,0,3.17,3.17,0,0,1,1-.23,8.93,8.93,0,0,1,2.83.08,6.2,6.2,0,0,1,3.63,2.14,5,5,0,0,1,1,2.34,10.45,10.45,0,0,1,0,2.68c-.38,3.59-.77,6.82-1.07,9.17-.15,1.17-.29,2.12-.39,2.77A4.34,4.34,0,0,1,38.93,137.41Z"/><path class="cls-6" d="M39.6,136.59A58.65,58.65,0,0,1,32,137.66a57.13,57.13,0,0,1-7.69.55,58.65,58.65,0,0,1,7.64-1.07A57.13,57.13,0,0,1,39.6,136.59Z"/><path class="cls-4" d="M76.17,142.65a5.76,5.76,0,0,1,.59-2.43c.95-1.51,2.31-1.13,3.63-.47a4.48,4.48,0,0,0,4.06.45c2.27-1,3.34-4.42,1.17-6-.71-.52-1.4.34-1.3,1,.13.92.59,1.94-.2,2.73-1.06,1.06-2.3.17-3.36-.3a4.32,4.32,0,0,0-3.52-.15c-2,.81-3.5,3.56-1.89,5.41a.49.49,0,0,0,.82-.21Z"/><path class="cls-2" d="M91.65,110.08c-1.57,1.51-2.17,3.86-.67,5.67a4.39,4.39,0,0,0,5.9.71c4.26-3.28-.18-9.34-4.77-8.09a.77.77,0,0,0,.21,1.5,6,6,0,0,1,3.85,1.06,2.81,2.81,0,0,1,.23,3.89c-2.5,3.07-6.85-1.46-4.22-4.21a.38.38,0,0,0-.53-.53Z"/><path class="cls-3" d="M25.52,107.09c-1.57,1.5-2.17,3.85-.67,5.67a4.41,4.41,0,0,0,5.91.7c4.25-3.28-.18-9.34-4.78-8.08a.76.76,0,0,0,.21,1.49A6,6,0,0,1,30,107.94a2.8,2.8,0,0,1,.23,3.88c-2.5,3.07-6.85-1.46-4.22-4.21a.37.37,0,0,0-.53-.52Z"/><path class="cls-2" d="M2.72,145c1.09,4,2.28,8,3.51,12a1.26,1.26,0,0,0,2,.7c3.23-2.19,6.45-4.35,9.51-6.78a1.15,1.15,0,0,0-.12-1.8c-3.58-2.46-8.42-6.09-13-6.12-1.16,0-2,1.62-.79,2.3,1.83,1.06,4,1.43,6,2.25A32.38,32.38,0,0,1,16.38,151c.05-.66.09-1.32.14-2-3.42,2.1-6.64,4.46-9.89,6.81l1.92.39c-1.39-3.93-2.81-7.82-4.35-11.69-.32-.81-1.71-.36-1.48.49Z"/><path class="cls-5" d="M96.44,128.1a50.6,50.6,0,0,0,8.6.57.8.8,0,0,0,0-1.59,48.66,48.66,0,0,0-8.45,0c-.56,0-.78,1-.15,1Z"/><path class="cls-5" d="M1.79,128.1a50.42,50.42,0,0,0,8.59.57.8.8,0,0,0,0-1.59,48.66,48.66,0,0,0-8.45,0c-.56,0-.78,1-.14,1Z"/><path class="cls-6" d="M20.59,123.5l-.15-.13a1.62,1.62,0,0,0-2.29,2.29l.13.14a1.63,1.63,0,1,0,2.31-2.3Z"/><path class="cls-6" d="M60.8,136.74c-.13,0-.24-2.47-.5-5.52a20.39,20.39,0,0,1,0-5.56,55,55,0,0,1,.5,5.52A19.92,19.92,0,0,1,60.8,136.74Z"/><polygon class="cls-6" points="76.92 113.56 84.34 111.48 84.78 112.83 77.29 115.15 76.92 113.56"/><path class="cls-8" d="M81.66,113.25a.93.93,0,1,1-.93-.92A.93.93,0,0,1,81.66,113.25Z"/><path class="cls-6" d="M51.59,92.9c-.12.07-.36-.06-.6-.32s-.33-.58-.2-.66.36.06.59.32S51.72,92.82,51.59,92.9Z"/><path class="cls-6" d="M44.83,93.85c-.12.07-.36-.06-.6-.32s-.33-.58-.2-.66.36.06.59.32S45,93.77,44.83,93.85Z"/><polygon class="cls-5" points="37.8 62.85 37.8 77.66 27.91 77.66 27.59 83.27 21.78 77.33 0 77.33 1.92 61.76 37.8 62.85"/><path class="cls-8" d="M34.42,67.09c-9.73-.2-19.52-.26-29.24-.06a.15.15,0,0,0,0,.29c9.72.2,19.51.14,29.24-.06a.09.09,0,0,0,0-.17Z"/><path class="cls-8" d="M34.42,69.93c-9.73-.19-19.52-.26-29.24-.06a.15.15,0,0,0,0,.29c9.72.21,19.51.14,29.24-.06a.09.09,0,0,0,0-.17Z"/><path class="cls-8" d="M34.42,72.93c-6-.19-12-.24-18-.06a.15.15,0,0,0,0,.29c5.95.18,12,.13,18-.06a.09.09,0,0,0,0-.17Z"/></g></g></svg>